<?xml version="1.0" standalone="no"?>
<!DOCTYPE svg PUBLIC "-//W3C//DTD SVG 1.1//EN" "http://www.w3.org/Graphics/SVG/1.1/DTD/svg11.dtd">
<svg xmlns="http://www.w3.org/2000/svg" xmlns:xlink="http://www.w3.org/1999/xlink" width="135" zoomAndPan="magnify" viewBox="0 0 135 44.999999" height="45" preserveAspectRatio="xMidYMid meet" version="1.0"><defs><g/><clipPath id="1cbde6b0f8"><path d="M 1.039062 7 L 28.816406 7 L 28.816406 31.5625 L 1.039062 31.5625 Z M 1.039062 7 " clip-rule="nonzero"/></clipPath><clipPath id="e7d1ad901d"><path d="M 2 23 L 14 23 L 14 31.5625 L 2 31.5625 Z M 2 23 " clip-rule="nonzero"/></clipPath><clipPath id="552c3feb13"><path d="M 21 7 L 28.816406 7 L 28.816406 14 L 21 14 Z M 21 7 " clip-rule="nonzero"/></clipPath></defs><g clip-path="url(#1cbde6b0f8)"><path fill="#5f41b2" d="M 5.234375 19.054688 C 4.574219 19.054688 3.917969 19.328125 3.449219 19.859375 C 2.589844 20.835938 2.6875 22.328125 3.671875 23.1875 L 11.027344 29.585938 C 11.460938 29.964844 12.015625 30.171875 12.589844 30.171875 C 12.6875 30.171875 12.785156 30.164062 12.878906 30.152344 C 13.546875 30.070312 14.152344 29.710938 14.535156 29.160156 L 26.492188 12.089844 C 27.238281 11.023438 26.972656 9.550781 25.898438 8.808594 C 25.378906 8.449219 24.75 8.3125 24.128906 8.421875 C 23.503906 8.535156 22.960938 8.878906 22.597656 9.394531 L 12.601562 23.671875 C 12.488281 23.832031 12.3125 23.9375 12.117188 23.960938 C 11.921875 23.984375 11.722656 23.925781 11.574219 23.796875 L 6.796875 19.636719 C 6.347656 19.246094 5.789062 19.054688 5.234375 19.054688 Z M 12.589844 31.550781 C 11.679688 31.550781 10.800781 31.222656 10.113281 30.625 L 2.757812 24.226562 C 1.199219 22.867188 1.039062 20.5 2.40625 18.949219 C 3.769531 17.398438 6.148438 17.242188 7.710938 18.597656 L 11.90625 22.25 L 21.460938 8.605469 C 22.035156 7.789062 22.894531 7.238281 23.882812 7.0625 C 24.871094 6.886719 25.871094 7.105469 26.695312 7.675781 C 28.394531 8.855469 28.816406 11.1875 27.628906 12.878906 L 15.675781 29.949219 C 15.066406 30.820312 14.109375 31.394531 13.046875 31.523438 C 12.898438 31.542969 12.742188 31.550781 12.589844 31.550781 " fill-opacity="1" fill-rule="nonzero"/></g><g clip-path="url(#e7d1ad901d)"><path fill="#c0b8e3" d="M 12.589844 31.550781 C 11.679688 31.550781 10.800781 31.222656 10.113281 30.625 L 2.757812 24.226562 C 2.46875 23.972656 2.441406 23.539062 2.691406 23.25 C 2.945312 22.964844 3.382812 22.933594 3.671875 23.1875 L 11.027344 29.585938 C 11.460938 29.964844 12.015625 30.171875 12.589844 30.171875 C 12.6875 30.171875 12.785156 30.164062 12.878906 30.152344 C 13.257812 30.105469 13.605469 30.375 13.652344 30.753906 C 13.699219 31.132812 13.429688 31.476562 13.046875 31.523438 C 12.898438 31.542969 12.742188 31.550781 12.589844 31.550781 " fill-opacity="1" fill-rule="nonzero"/></g><g clip-path="url(#552c3feb13)"><path fill="#c0b8e3" d="M 27.058594 13.175781 C 26.921875 13.175781 26.785156 13.136719 26.664062 13.050781 C 26.347656 12.835938 26.273438 12.402344 26.492188 12.089844 C 27.238281 11.023438 26.972656 9.550781 25.898438 8.808594 C 25.378906 8.449219 24.75 8.3125 24.128906 8.421875 C 23.503906 8.535156 22.960938 8.878906 22.597656 9.394531 C 22.378906 9.707031 21.949219 9.785156 21.632812 9.566406 C 21.320312 9.351562 21.242188 8.917969 21.460938 8.605469 C 22.035156 7.789062 22.894531 7.238281 23.882812 7.0625 C 24.871094 6.886719 25.871094 7.105469 26.695312 7.675781 C 28.394531 8.855469 28.816406 11.1875 27.628906 12.878906 C 27.496094 13.074219 27.28125 13.175781 27.058594 13.175781 " fill-opacity="1" fill-rule="nonzero"/></g><path fill="#5f41b2" d="M 15.105469 30.246094 C 14.96875 30.246094 14.832031 30.203125 14.710938 30.121094 C 14.394531 29.902344 14.316406 29.472656 14.535156 29.160156 L 26.492188 12.089844 C 26.710938 11.777344 27.144531 11.699219 27.457031 11.917969 C 27.773438 12.136719 27.847656 12.566406 27.628906 12.878906 L 15.675781 29.949219 C 15.539062 30.140625 15.324219 30.246094 15.105469 30.246094 " fill-opacity="1" fill-rule="nonzero"/><path fill="#7f74fa" d="M 12.03125 23.964844 C 11.863281 23.964844 11.703125 23.90625 11.574219 23.796875 L 6.796875 19.636719 C 6.507812 19.386719 6.476562 18.949219 6.730469 18.664062 C 6.980469 18.375 7.421875 18.347656 7.710938 18.597656 L 11.90625 22.25 L 21.460938 8.605469 C 21.679688 8.292969 22.113281 8.21875 22.425781 8.433594 C 22.742188 8.652344 22.820312 9.082031 22.597656 9.394531 L 12.601562 23.671875 C 12.488281 23.832031 12.3125 23.9375 12.117188 23.960938 C 12.089844 23.964844 12.058594 23.964844 12.03125 23.964844 " fill-opacity="1" fill-rule="nonzero"/><g fill="#091b5f" fill-opacity="1"><g transform="translate(25.61176, 29.744791)"><g><path d="M 8.792969 0 L 8.792969 -2.28125 L 6.984375 -2.28125 C 6.109375 -2.28125 5.292969 -2.679688 5.292969 -4.316406 L 5.292969 -9.3125 L 8.792969 -9.3125 L 8.792969 -11.675781 L 5.292969 -11.675781 L 5.292969 -15.117188 L 2.542969 -15.09375 L 2.542969 -11.675781 L 0.125 -11.675781 L 0.125 -9.3125 L 2.542969 -9.3125 L 2.542969 -4.441406 C 2.542969 -0.589844 4.65625 0 6.417969 0 Z M 8.792969 0 "/></g></g></g><g fill="#091b5f" fill-opacity="1"><g transform="translate(35.015879, 29.744791)"><g><path d="M 6.859375 0.351562 C 9.949219 0.351562 12.335938 -1.285156 12.335938 -5.441406 L 12.335938 -11.675781 L 9.597656 -11.675781 L 9.597656 -5.519531 C 9.597656 -3.386719 8.6875 -2.203125 6.847656 -2.203125 C 5.019531 -2.203125 4.089844 -3.363281 4.089844 -5.519531 L 4.089844 -11.675781 L 1.363281 -11.675781 L 1.363281 -5.441406 C 1.363281 -1.285156 3.738281 0.351562 6.859375 0.351562 Z M 6.859375 0.351562 "/></g></g></g><g fill="#091b5f" fill-opacity="1"><g transform="translate(48.713183, 29.744791)"><g><path d="M 8.792969 0 L 8.792969 -2.28125 L 6.984375 -2.28125 C 6.109375 -2.28125 5.292969 -2.679688 5.292969 -4.316406 L 5.292969 -9.3125 L 8.792969 -9.3125 L 8.792969 -11.675781 L 5.292969 -11.675781 L 5.292969 -15.117188 L 2.542969 -15.09375 L 2.542969 -11.675781 L 0.125 -11.675781 L 0.125 -9.3125 L 2.542969 -9.3125 L 2.542969 -4.441406 C 2.542969 -0.589844 4.65625 0 6.417969 0 Z M 8.792969 0 "/></g></g></g><g fill="#091b5f" fill-opacity="1"><g transform="translate(58.117302, 29.744791)"><g><path d="M 6.917969 0.351562 C 10.519531 0.351562 13.097656 -2.398438 13.097656 -5.839844 C 13.097656 -9.257812 10.519531 -12.027344 6.929688 -12.027344 C 3.351562 -12.027344 0.785156 -9.246094 0.785156 -5.839844 C 0.785156 -2.40625 3.363281 0.351562 6.917969 0.351562 Z M 6.941406 -2.203125 C 4.976562 -2.203125 3.511719 -3.726562 3.511719 -5.839844 C 3.511719 -7.941406 4.976562 -9.484375 6.941406 -9.484375 C 8.90625 -9.484375 10.371094 -7.941406 10.371094 -5.839844 C 10.371094 -3.726562 8.90625 -2.203125 6.941406 -2.203125 Z M 6.941406 -2.203125 "/></g></g></g><g fill="#091b5f" fill-opacity="1"><g transform="translate(71.996328, 29.744791)"><g><path d="M 4.363281 0 L 4.363281 -5.429688 C 4.363281 -7.917969 5.644531 -9.3125 7.53125 -9.3125 L 8.632812 -9.3125 L 8.632812 -11.675781 L 7.382812 -11.675781 C 5.859375 -11.675781 4.792969 -10.847656 4.25 -9.5625 L 4.25 -11.675781 L 1.613281 -11.675781 L 1.613281 0 Z M 4.363281 0 "/></g></g></g><g fill="#091b5f" fill-opacity="1"><g transform="translate(80.980215, 29.744791)"><g><path d="M 12.527344 0 L 12.527344 -2.53125 L 4.667969 -2.53125 L 4.667969 -6.65625 L 11.371094 -6.65625 L 11.371094 -9.042969 L 4.667969 -9.042969 L 4.667969 -12.914062 L 12.425781 -12.914062 L 12.425781 -15.449219 L 1.839844 -15.449219 L 1.839844 0 Z M 12.527344 0 "/></g></g></g><g fill="#091b5f" fill-opacity="1"><g transform="translate(94.245929, 29.744791)"><g><path d="M 6.28125 0.351562 C 8.179688 0.351562 9.722656 -0.511719 10.484375 -1.964844 L 10.484375 0 L 13.097656 0 L 13.097656 -11.675781 L 10.484375 -11.675781 L 10.484375 -9.699219 C 9.734375 -11.152344 8.179688 -12.027344 6.269531 -12.027344 C 3.144531 -12.027344 0.785156 -9.246094 0.785156 -5.839844 C 0.785156 -2.40625 3.125 0.351562 6.28125 0.351562 Z M 6.941406 -2.191406 C 5.089844 -2.191406 3.511719 -3.566406 3.511719 -5.839844 C 3.511719 -8.03125 5.054688 -9.484375 6.941406 -9.484375 C 8.847656 -9.484375 10.371094 -7.871094 10.371094 -5.839844 C 10.371094 -3.769531 8.859375 -2.191406 6.941406 -2.191406 Z M 6.941406 -2.191406 "/></g></g></g><g fill="#091b5f" fill-opacity="1"><g transform="translate(108.954062, 29.744791)"><g><path d="M 5.816406 0.351562 C 8.632812 0.351562 10.722656 -0.898438 10.722656 -3.464844 C 10.722656 -5.941406 8.835938 -6.644531 6.417969 -7.007812 C 4.40625 -7.328125 3.976562 -7.609375 3.976562 -8.484375 C 3.976562 -9.1875 4.496094 -9.78125 5.679688 -9.78125 C 6.953125 -9.78125 7.632812 -9.167969 7.691406 -8.304688 L 10.382812 -8.28125 C 10.382812 -10.507812 8.484375 -12.027344 5.667969 -12.027344 C 2.816406 -12.027344 1.273438 -10.574219 1.273438 -8.429688 C 1.273438 -6.007812 3.203125 -5.113281 5.453125 -4.816406 C 7.042969 -4.578125 7.917969 -4.292969 7.917969 -3.304688 C 7.917969 -2.417969 7.257812 -1.828125 5.839844 -1.828125 C 4.269531 -1.828125 3.476562 -2.636719 3.429688 -3.703125 L 0.796875 -3.714844 C 0.796875 -1.660156 2.386719 0.351562 5.816406 0.351562 Z M 5.816406 0.351562 "/></g></g></g><g fill="#091b5f" fill-opacity="1"><g transform="translate(120.334409, 29.744791)"><g><path d="M 12.722656 -6.042969 C 12.722656 -9.257812 10.359375 -12.027344 6.835938 -12.027344 C 3.328125 -12.027344 0.785156 -9.246094 0.785156 -5.839844 C 0.785156 -2.429688 3.328125 0.351562 6.835938 0.351562 C 9.746094 0.351562 11.824219 -1.566406 12.414062 -3.667969 L 9.417969 -3.667969 C 9.019531 -2.679688 8.167969 -2.101562 6.78125 -2.101562 C 5.167969 -2.101562 3.828125 -3.203125 3.542969 -5.113281 L 12.664062 -5.113281 C 12.710938 -5.542969 12.722656 -5.746094 12.722656 -6.042969 Z M 3.65625 -7.234375 C 4.125 -8.882812 5.441406 -9.632812 6.828125 -9.632812 C 8.4375 -9.632812 9.800781 -8.542969 9.914062 -7.234375 Z M 3.65625 -7.234375 "/></g></g></g></svg>