<svg xmlns="http://www.w3.org/2000/svg" xmlns:xlink="http://www.w3.org/1999/xlink" width="60" zoomAndPan="magnify" viewBox="0 0 45 44.999999" height="60" preserveAspectRatio="xMidYMid meet" version="1.0"><defs><clipPath id="5ad93ef172"><path d="M 0.296875 2.65625 L 44 2.65625 L 44 42.40625 L 0.296875 42.40625 Z M 0.296875 2.65625 " clip-rule="nonzero"/></clipPath><clipPath id="477c63a4fe"><path d="M 2 28 L 21 28 L 21 42.40625 L 2 42.40625 Z M 2 28 " clip-rule="nonzero"/></clipPath><clipPath id="d349f22d3a"><path d="M 32 2.65625 L 44 2.65625 L 44 13 L 32 13 Z M 32 2.65625 " clip-rule="nonzero"/></clipPath></defs><g clip-path="url(#5ad93ef172)"><path fill="#5f41b2" d="M 6.980469 22.269531 C 5.929688 22.269531 4.882812 22.710938 4.136719 23.566406 C 2.765625 25.140625 2.925781 27.542969 4.492188 28.921875 L 16.210938 39.230469 C 16.898438 39.835938 17.785156 40.171875 18.699219 40.171875 C 18.851562 40.171875 19.003906 40.160156 19.15625 40.140625 C 20.222656 40.011719 21.183594 39.429688 21.796875 38.542969 L 40.839844 11.054688 C 42.03125 9.339844 41.609375 6.96875 39.898438 5.769531 C 39.074219 5.191406 38.070312 4.96875 37.078125 5.148438 C 36.082031 5.328125 35.21875 5.882812 34.640625 6.714844 L 18.714844 29.703125 C 18.535156 29.964844 18.253906 30.132812 17.941406 30.171875 C 17.632812 30.210938 17.316406 30.113281 17.082031 29.90625 L 9.464844 23.207031 C 8.75 22.578125 7.863281 22.269531 6.980469 22.269531 Z M 18.699219 42.394531 C 17.246094 42.394531 15.847656 41.863281 14.753906 40.90625 L 3.035156 30.597656 C 0.550781 28.410156 0.296875 24.601562 2.472656 22.101562 C 4.644531 19.605469 8.4375 19.351562 10.921875 21.535156 L 17.605469 27.414062 L 32.828125 5.445312 C 33.742188 4.125 35.113281 3.242188 36.6875 2.960938 C 38.261719 2.675781 39.851562 3.027344 41.164062 3.945312 C 43.875 5.84375 44.542969 9.601562 42.65625 12.328125 L 23.613281 39.8125 C 22.640625 41.21875 21.113281 42.140625 19.425781 42.347656 C 19.183594 42.378906 18.941406 42.394531 18.699219 42.394531 " fill-opacity="1" fill-rule="nonzero"/></g><g clip-path="url(#477c63a4fe)"><path fill="#c0b8e3" d="M 18.699219 42.394531 C 17.246094 42.394531 15.847656 41.863281 14.753906 40.90625 L 3.035156 30.597656 C 2.574219 30.191406 2.527344 29.488281 2.929688 29.027344 C 3.332031 28.566406 4.03125 28.519531 4.492188 28.921875 L 16.210938 39.230469 C 16.898438 39.835938 17.785156 40.171875 18.699219 40.171875 C 18.851562 40.171875 19.003906 40.160156 19.15625 40.140625 C 19.761719 40.066406 20.316406 40.5 20.390625 41.109375 C 20.464844 41.71875 20.03125 42.273438 19.425781 42.347656 C 19.183594 42.378906 18.941406 42.394531 18.699219 42.394531 " fill-opacity="1" fill-rule="nonzero"/></g><g clip-path="url(#d349f22d3a)"><path fill="#c0b8e3" d="M 41.746094 12.804688 C 41.53125 12.804688 41.308594 12.738281 41.117188 12.605469 C 40.617188 12.253906 40.492188 11.558594 40.839844 11.054688 C 42.03125 9.339844 41.609375 6.96875 39.898438 5.769531 C 39.074219 5.191406 38.070312 4.96875 37.078125 5.148438 C 36.082031 5.328125 35.21875 5.882812 34.640625 6.714844 C 34.292969 7.21875 33.605469 7.34375 33.101562 6.992188 C 32.601562 6.644531 32.476562 5.949219 32.828125 5.445312 C 33.742188 4.125 35.113281 3.242188 36.6875 2.960938 C 38.261719 2.675781 39.851562 3.027344 41.164062 3.945312 C 43.875 5.84375 44.542969 9.601562 42.65625 12.328125 C 42.441406 12.636719 42.097656 12.804688 41.746094 12.804688 " fill-opacity="1" fill-rule="nonzero"/></g><path fill="#5f41b2" d="M 22.703125 40.289062 C 22.484375 40.289062 22.265625 40.226562 22.074219 40.089844 C 21.570312 39.742188 21.449219 39.046875 21.796875 38.542969 L 40.839844 11.054688 C 41.191406 10.550781 41.878906 10.429688 42.382812 10.78125 C 42.882812 11.128906 43.003906 11.824219 42.65625 12.328125 L 23.613281 39.8125 C 23.398438 40.125 23.054688 40.289062 22.703125 40.289062 " fill-opacity="1" fill-rule="nonzero"/><path fill="#7f74fa" d="M 17.808594 30.179688 C 17.542969 30.179688 17.285156 30.082031 17.082031 29.90625 L 9.464844 23.207031 C 9.007812 22.804688 8.960938 22.101562 9.363281 21.640625 C 9.765625 21.179688 10.464844 21.128906 10.921875 21.535156 L 17.605469 27.414062 L 32.828125 5.445312 C 33.175781 4.941406 33.867188 4.816406 34.367188 5.167969 C 34.867188 5.519531 34.992188 6.210938 34.640625 6.714844 L 18.714844 29.703125 C 18.535156 29.964844 18.253906 30.132812 17.941406 30.171875 C 17.898438 30.179688 17.851562 30.179688 17.808594 30.179688 " fill-opacity="1" fill-rule="nonzero"/></svg>